<svg width="9" height="55" viewBox="0 0 9 55" fill="none" xmlns="http://www.w3.org/2000/svg">
<path d="M8 4C8 6.20914 6.20914 8 4 8C1.79086 8 0 6.20914 0 4C0 1.79086 1.79086 0 4 0C6.20914 0 8 1.79086 8 4Z" fill="#3E4958"/>
<path fill-rule="evenodd" clip-rule="evenodd" d="M3.59354 45.5001L3.59354 11.9981H4.59354L4.59354 45.5001L3.59354 45.5001Z" fill="#3E4958"/>
<path fill-rule="evenodd" clip-rule="evenodd" d="M4.46036 54.7867C4.38036 54.8933 4.22036 54.8933 4.14036 54.7867L0.0403631 49.32C-0.0585223 49.1882 0.035554 49 0.200363 49H8.40036C8.56517 49 8.65925 49.1882 8.56036 49.32L4.46036 54.7867Z" fill="#3E4958"/>
</svg>
