<svg id="Capa_1" data-name="Capa 1" xmlns="http://www.w3.org/2000/svg" viewBox="0 0 68 25.3"><defs><style>.cls-1{fill:#afafaf;}.cls-2{fill:#fff;}.cls-3{fill:#00e741;}</style></defs><path class="cls-1" d="M20.19,2.91a1,1,0,0,1,1-1H33.36a1,1,0,0,1,1,1V21.47a1,1,0,0,1-1,1H21.19a1,1,0,0,1-1-1Z" transform="translate(-4 0)"/><path class="cls-2" d="M27.13,24a1,1,0,0,0,1,1.26h6.39a1,1,0,0,0,1-.74L41.7,1.26a1,1,0,0,0-1-1.26H34.35a1,1,0,0,0-1,.74Z" transform="translate(-4 0)"/><path class="cls-2" d="M37.23,24a1,1,0,0,0,1,1.26h6.39a1,1,0,0,0,1-.74L51.8,1.26a1,1,0,0,0-1-1.26H44.45a1,1,0,0,0-1,.74Z" transform="translate(-4 0)"/><path class="cls-2" d="M49.63,24.3a1,1,0,0,0,1,1H71a1,1,0,0,0,1-1V20.37a1,1,0,0,0-1-1H61.54a1,1,0,0,1-.75-1.66l11-12.33A1,1,0,0,0,72,4.72V1a1,1,0,0,0-1-1H51.06a1,1,0,0,0-1,1V4.93a1,1,0,0,0,1,1h9a1,1,0,0,1,.74,1.66L49.88,19.92a1,1,0,0,0-.25.66Z" transform="translate(-4 0)"/><path class="cls-3" d="M4,24.3a1,1,0,0,0,1,1H17.05c6,0,9.58-2.64,9.58-7v-.07A5.62,5.62,0,0,0,24,13.16a1.73,1.73,0,0,1-.19-2.5,5.61,5.61,0,0,0,1.72-4.23V6.36a5.55,5.55,0,0,0-1.63-4.08C22.4.8,20.16,0,17,0H5A1,1,0,0,0,4,1Zm7.83-14.22a1,1,0,0,1-1-1V6.64a1,1,0,0,1,1-1h3.56c2.09,0,3.18.79,3.18,2.17v.07c0,1.48-1.2,2.2-3.33,2.2Zm0,9.58a1,1,0,0,1-1-1V16a1,1,0,0,1,1-1h4.35c2.35,0,3.43.9,3.43,2.28v.07c0,1.48-1.22,2.31-3.36,2.31Z" transform="translate(-4 0)"/></svg>