<svg width="25" height="25" viewBox="0 0 25 25" fill="none" xmlns="http://www.w3.org/2000/svg">
<path d="M12.5 0C5.59495 0 0 5.59495 0 12.5C0 19.405 5.59495 25 12.5 25C19.405 25 25 19.405 25 12.5C25 5.59495 19.405 0 12.5 0ZM12.5 23.9603C8.97836 23.9603 5.82332 22.3618 3.71995 19.8558C4.78966 19.393 7.45793 18.4315 9.14663 17.9387C9.27885 17.8966 9.30288 17.8906 9.30288 17.2957C9.30288 16.6587 9.23077 16.2079 9.07452 15.8774C8.86418 15.4267 8.61178 14.6635 8.52163 13.9784C8.26923 13.6839 7.92668 13.107 7.70433 12.0012C7.51202 11.0276 7.60216 10.6731 7.72837 10.3425C7.74038 10.3065 7.75841 10.2704 7.76442 10.2344C7.8125 10.012 7.74639 8.82211 7.57812 7.90264C7.46394 7.27163 7.60817 5.93149 8.47957 4.81971C9.02644 4.11659 10.0781 3.25721 11.9651 3.13702H13.0168C14.9339 3.25721 15.9856 4.11659 16.5325 4.81971C17.4038 5.93149 17.5481 7.27163 17.4279 7.90264C17.2596 8.82211 17.1935 10.006 17.2416 10.2344C17.2476 10.2704 17.2656 10.3065 17.2776 10.3365C17.4038 10.6671 17.5 11.0216 17.3017 11.9952C17.0793 13.101 16.7368 13.6779 16.4844 13.9724C16.3942 14.6575 16.1418 15.4147 15.9315 15.8714C15.7332 16.2861 15.5349 16.7788 15.5349 17.2716C15.5349 17.8666 15.5589 17.8726 15.6971 17.9147C17.3017 18.3894 20.0661 19.345 21.2861 19.8438C19.1827 22.3558 16.0276 23.9603 12.5 23.9603Z" fill="white"/>
</svg>
